# xmcd CD database file
#
# Track frame offsets:
#	150
#	13444
#	28593
#	45275
#	60519
#	72491
#	87335
#	101588
#	117498
#	129221
#
# Disc length: 1926 seconds
#
# Revision: 0
# Processed by: cddbd v1.5.2PL0 Copyright (c) Steve Scherf et al.
# Submitted via: CDex 1.70beta2
#
DISCID=8207840a
DTITLE=Louis Armstron - Ambassador of Jazz
DYEAR=2006
DGENRE=Jazz
TTITLE0=On the Sunny Side of the Street
TTITLE1=Body and Soul
TTITLE2=If I Could Be With You (One Hour Tonight)
TTITLE3=Just a Gigolo
TTITLE4=Jeepers Creepers
TTITLE5=West End Blues
TTITLE6=Public Melody Number One
TTITLE7=When You're Smiling (The Whole World Smiles With You)
TTITLE8=It's Wonderful
TTITLE9=Squeeze Me
EXTD=YEAR: 2006
EXTT0=
EXTT1=
EXTT2=
EXTT3=
EXTT4=
EXTT5=
EXTT6=
EXTT7=
EXTT8=
EXTT9=
PLAYORDER=
